<mxfile host="app.diagrams.net" modified="2022-09-28T10:24:06.558Z" agent="5.0 (Windows NT 10.0; Win64; x64) AppleWebKit/537.36 (KHTML, like Gecko) Chrome/105.0.0.0 Safari/537.36" etag="R5cQYLLfj4gUgwUcEPYc" version="20.3.7" type="github">
  <diagram id="YHXNMDAUgjNIEf82KM6D" name="affine">
    <mxGraphModel dx="312" dy="474" grid="1" gridSize="10" guides="1" tooltips="1" connect="1" arrows="1" fold="1" page="1" pageScale="1" pageWidth="827" pageHeight="1169" math="0" shadow="0">
      <root>
        <mxCell id="0" />
        <mxCell id="1" parent="0" />
        <mxCell id="JFmZcP9b4A3JIfBgf7JJ-6" value="" style="endArrow=none;html=1;rounded=0;strokeColor=#CCCCCC;entryX=1;entryY=0.5;entryDx=0;entryDy=0;" edge="1" parent="1" target="ii_1wvdTF_ilezys5I7p-11">
          <mxGeometry width="50" height="50" relative="1" as="geometry">
            <mxPoint x="290" y="270" as="sourcePoint" />
            <mxPoint x="310" y="300" as="targetPoint" />
          </mxGeometry>
        </mxCell>
        <mxCell id="JFmZcP9b4A3JIfBgf7JJ-7" value="" style="endArrow=none;html=1;rounded=0;strokeColor=#CCCCCC;entryX=1;entryY=0.5;entryDx=0;entryDy=0;" edge="1" parent="1" target="ii_1wvdTF_ilezys5I7p-13">
          <mxGeometry width="50" height="50" relative="1" as="geometry">
            <mxPoint x="290" y="270" as="sourcePoint" />
            <mxPoint x="290" y="150" as="targetPoint" />
          </mxGeometry>
        </mxCell>
        <mxCell id="JFmZcP9b4A3JIfBgf7JJ-8" value="" style="endArrow=none;html=1;rounded=0;strokeColor=#CCCCCC;entryX=1;entryY=0.5;entryDx=0;entryDy=0;" edge="1" parent="1" target="ii_1wvdTF_ilezys5I7p-16">
          <mxGeometry width="50" height="50" relative="1" as="geometry">
            <mxPoint x="290" y="270" as="sourcePoint" />
            <mxPoint x="290" y="210" as="targetPoint" />
          </mxGeometry>
        </mxCell>
        <mxCell id="JFmZcP9b4A3JIfBgf7JJ-9" value="" style="endArrow=none;html=1;rounded=0;strokeColor=#CCCCCC;entryX=1;entryY=0.5;entryDx=0;entryDy=0;exitX=1;exitY=0.5;exitDx=0;exitDy=0;" edge="1" parent="1" source="ii_1wvdTF_ilezys5I7p-14">
          <mxGeometry width="50" height="50" relative="1" as="geometry">
            <mxPoint x="300" y="280" as="sourcePoint" />
            <mxPoint x="290" y="270" as="targetPoint" />
          </mxGeometry>
        </mxCell>
        <mxCell id="JFmZcP9b4A3JIfBgf7JJ-10" value="" style="endArrow=none;html=1;rounded=0;strokeColor=#CCCCCC;exitX=1;exitY=0.5;exitDx=0;exitDy=0;" edge="1" parent="1" source="ii_1wvdTF_ilezys5I7p-15">
          <mxGeometry width="50" height="50" relative="1" as="geometry">
            <mxPoint x="290" y="330" as="sourcePoint" />
            <mxPoint x="290" y="270" as="targetPoint" />
          </mxGeometry>
        </mxCell>
        <mxCell id="JFmZcP9b4A3JIfBgf7JJ-1" value="" style="endArrow=none;html=1;rounded=0;strokeColor=#CCCCCC;entryX=0;entryY=0.5;entryDx=0;entryDy=0;" edge="1" parent="1" target="ii_1wvdTF_ilezys5I7p-1">
          <mxGeometry width="50" height="50" relative="1" as="geometry">
            <mxPoint x="110" y="270" as="sourcePoint" />
            <mxPoint x="270" y="320" as="targetPoint" />
          </mxGeometry>
        </mxCell>
        <mxCell id="JFmZcP9b4A3JIfBgf7JJ-3" value="" style="endArrow=none;html=1;rounded=0;strokeColor=#CCCCCC;entryX=0;entryY=0.5;entryDx=0;entryDy=0;" edge="1" parent="1" target="ii_1wvdTF_ilezys5I7p-8">
          <mxGeometry width="50" height="50" relative="1" as="geometry">
            <mxPoint x="110" y="270" as="sourcePoint" />
            <mxPoint x="130" y="190" as="targetPoint" />
          </mxGeometry>
        </mxCell>
        <mxCell id="JFmZcP9b4A3JIfBgf7JJ-4" value="" style="endArrow=none;html=1;rounded=0;strokeColor=#CCCCCC;entryX=0;entryY=0.5;entryDx=0;entryDy=0;" edge="1" parent="1" target="ii_1wvdTF_ilezys5I7p-9">
          <mxGeometry width="50" height="50" relative="1" as="geometry">
            <mxPoint x="110" y="270" as="sourcePoint" />
            <mxPoint x="130" y="250" as="targetPoint" />
          </mxGeometry>
        </mxCell>
        <mxCell id="JFmZcP9b4A3JIfBgf7JJ-5" value="" style="endArrow=none;html=1;rounded=0;strokeColor=#CCCCCC;entryX=0;entryY=0.5;entryDx=0;entryDy=0;" edge="1" parent="1" target="ii_1wvdTF_ilezys5I7p-10">
          <mxGeometry width="50" height="50" relative="1" as="geometry">
            <mxPoint x="110" y="270" as="sourcePoint" />
            <mxPoint x="130" y="310" as="targetPoint" />
          </mxGeometry>
        </mxCell>
        <mxCell id="ii_1wvdTF_ilezys5I7p-67" value="" style="group" parent="1" vertex="1" connectable="0">
          <mxGeometry x="110" y="100" width="180" height="390" as="geometry" />
        </mxCell>
        <mxCell id="ii_1wvdTF_ilezys5I7p-64" value="" style="rounded=0;whiteSpace=wrap;html=1;strokeWidth=1;fontFamily=Times New Roman;fontSize=12;fontColor=default;fillColor=none;strokeColor=#4D4D4D;" parent="ii_1wvdTF_ilezys5I7p-67" vertex="1">
          <mxGeometry width="180" height="380" as="geometry" />
        </mxCell>
        <mxCell id="ii_1wvdTF_ilezys5I7p-66" value="Affine Layer" style="text;html=1;align=center;verticalAlign=middle;resizable=0;points=[];autosize=1;strokeColor=none;fillColor=default;fontSize=12;fontFamily=Times New Roman;fontColor=default;spacing=0;" parent="ii_1wvdTF_ilezys5I7p-67" vertex="1">
          <mxGeometry x="50" y="370" width="80" height="20" as="geometry" />
        </mxCell>
        <mxCell id="ii_1wvdTF_ilezys5I7p-15" value="&lt;font face=&quot;Times New Roman&quot;&gt;&lt;i style=&quot;font-size: 12px;&quot;&gt;y&lt;/i&gt;&lt;i style=&quot;font-size: 6.94444px;&quot;&gt;&lt;sub&gt;n&lt;/sub&gt;&lt;/i&gt;&lt;/font&gt;" style="ellipse;whiteSpace=wrap;html=1;aspect=fixed;" parent="ii_1wvdTF_ilezys5I7p-67" vertex="1">
          <mxGeometry x="130" y="320" width="40" height="40" as="geometry" />
        </mxCell>
        <mxCell id="ii_1wvdTF_ilezys5I7p-34" value="" style="group" parent="1" vertex="1" connectable="0">
          <mxGeometry x="135" y="330" width="10" height="50" as="geometry" />
        </mxCell>
        <mxCell id="ii_1wvdTF_ilezys5I7p-26" value="" style="ellipse;whiteSpace=wrap;html=1;aspect=fixed;strokeWidth=0;fontFamily=Times New Roman;fontSize=12;fillColor=#4D4D4D;" parent="ii_1wvdTF_ilezys5I7p-34" vertex="1">
          <mxGeometry width="10" height="10" as="geometry" />
        </mxCell>
        <mxCell id="ii_1wvdTF_ilezys5I7p-27" value="" style="ellipse;whiteSpace=wrap;html=1;aspect=fixed;strokeWidth=0;fontFamily=Times New Roman;fontSize=12;fillColor=#4D4D4D;" parent="ii_1wvdTF_ilezys5I7p-34" vertex="1">
          <mxGeometry y="20" width="10" height="10" as="geometry" />
        </mxCell>
        <mxCell id="ii_1wvdTF_ilezys5I7p-28" value="" style="ellipse;whiteSpace=wrap;html=1;aspect=fixed;strokeWidth=0;fontFamily=Times New Roman;fontSize=12;fillColor=#4D4D4D;" parent="ii_1wvdTF_ilezys5I7p-34" vertex="1">
          <mxGeometry y="40" width="10" height="10" as="geometry" />
        </mxCell>
        <mxCell id="ii_1wvdTF_ilezys5I7p-35" value="" style="group" parent="1" vertex="1" connectable="0">
          <mxGeometry x="255" y="350" width="10" height="50" as="geometry" />
        </mxCell>
        <mxCell id="ii_1wvdTF_ilezys5I7p-36" value="" style="ellipse;whiteSpace=wrap;html=1;aspect=fixed;strokeWidth=0;fontFamily=Times New Roman;fontSize=12;fillColor=#4D4D4D;" parent="ii_1wvdTF_ilezys5I7p-35" vertex="1">
          <mxGeometry width="10" height="10" as="geometry" />
        </mxCell>
        <mxCell id="ii_1wvdTF_ilezys5I7p-37" value="" style="ellipse;whiteSpace=wrap;html=1;aspect=fixed;strokeWidth=0;fontFamily=Times New Roman;fontSize=12;fillColor=#4D4D4D;" parent="ii_1wvdTF_ilezys5I7p-35" vertex="1">
          <mxGeometry y="20" width="10" height="10" as="geometry" />
        </mxCell>
        <mxCell id="ii_1wvdTF_ilezys5I7p-38" value="" style="ellipse;whiteSpace=wrap;html=1;aspect=fixed;strokeWidth=0;fontFamily=Times New Roman;fontSize=12;fillColor=#4D4D4D;" parent="ii_1wvdTF_ilezys5I7p-35" vertex="1">
          <mxGeometry y="40" width="10" height="10" as="geometry" />
        </mxCell>
        <mxCell id="ii_1wvdTF_ilezys5I7p-39" value="&lt;span style=&quot;font-size: 12px;&quot;&gt;&lt;i style=&quot;&quot;&gt;W&lt;/i&gt;&lt;/span&gt;&lt;sub&gt;11&lt;/sub&gt;" style="endArrow=classic;html=1;rounded=0;labelBackgroundColor=default;sketch=0;strokeColor=#4D4D4D;strokeWidth=1;fontFamily=Times New Roman;fontSize=12;fontColor=default;startSize=4;endSize=4;sourcePerimeterSpacing=0;targetPerimeterSpacing=0;shape=connector;jumpStyle=none;jumpSize=4;" parent="1" source="ii_1wvdTF_ilezys5I7p-1" target="ii_1wvdTF_ilezys5I7p-11" edge="1">
          <mxGeometry width="50" height="50" relative="1" as="geometry">
            <mxPoint x="200" y="350" as="sourcePoint" />
            <mxPoint x="250" y="300" as="targetPoint" />
          </mxGeometry>
        </mxCell>
        <mxCell id="ii_1wvdTF_ilezys5I7p-41" value="" style="endArrow=classic;html=1;rounded=0;labelBackgroundColor=default;sketch=0;strokeColor=#CCCCCC;strokeWidth=1;fontFamily=Times New Roman;fontSize=12;fontColor=default;startSize=4;endSize=4;sourcePerimeterSpacing=0;targetPerimeterSpacing=0;shape=connector;jumpStyle=none;jumpSize=4;" parent="1" source="ii_1wvdTF_ilezys5I7p-8" target="ii_1wvdTF_ilezys5I7p-13" edge="1">
          <mxGeometry width="50" height="50" relative="1" as="geometry">
            <mxPoint x="150" y="230" as="sourcePoint" />
            <mxPoint x="230" y="190" as="targetPoint" />
          </mxGeometry>
        </mxCell>
        <mxCell id="ii_1wvdTF_ilezys5I7p-42" value="" style="endArrow=classic;html=1;rounded=0;labelBackgroundColor=default;sketch=0;strokeColor=#CCCCCC;strokeWidth=1;fontFamily=Times New Roman;fontSize=12;fontColor=default;startSize=4;endSize=4;sourcePerimeterSpacing=0;targetPerimeterSpacing=0;shape=connector;jumpStyle=none;jumpSize=4;" parent="1" source="ii_1wvdTF_ilezys5I7p-9" target="ii_1wvdTF_ilezys5I7p-16" edge="1">
          <mxGeometry width="50" height="50" relative="1" as="geometry">
            <mxPoint x="160" y="300" as="sourcePoint" />
            <mxPoint x="240" y="260" as="targetPoint" />
          </mxGeometry>
        </mxCell>
        <mxCell id="ii_1wvdTF_ilezys5I7p-43" value="" style="endArrow=classic;html=1;rounded=0;labelBackgroundColor=default;sketch=0;strokeColor=#CCCCCC;strokeWidth=1;fontFamily=Times New Roman;fontSize=12;fontColor=default;startSize=4;endSize=4;sourcePerimeterSpacing=0;targetPerimeterSpacing=0;shape=connector;jumpStyle=none;jumpSize=4;" parent="1" source="ii_1wvdTF_ilezys5I7p-1" target="ii_1wvdTF_ilezys5I7p-13" edge="1">
          <mxGeometry width="50" height="50" relative="1" as="geometry">
            <mxPoint x="168.9915063440793" y="243.7292196033701" as="sourcePoint" />
            <mxPoint x="251.02633403898983" y="216.3245553203368" as="targetPoint" />
          </mxGeometry>
        </mxCell>
        <mxCell id="ii_1wvdTF_ilezys5I7p-44" value="" style="endArrow=classic;html=1;rounded=0;labelBackgroundColor=default;sketch=0;strokeColor=#CCCCCC;strokeWidth=1;fontFamily=Times New Roman;fontSize=12;fontColor=default;startSize=4;endSize=4;sourcePerimeterSpacing=0;targetPerimeterSpacing=0;shape=connector;jumpStyle=none;jumpSize=4;" parent="1" source="ii_1wvdTF_ilezys5I7p-1" target="ii_1wvdTF_ilezys5I7p-16" edge="1">
          <mxGeometry width="50" height="50" relative="1" as="geometry">
            <mxPoint x="169.7278784766438" y="193.28797974610734" as="sourcePoint" />
            <mxPoint x="250.27212152335892" y="206.71202025389323" as="targetPoint" />
          </mxGeometry>
        </mxCell>
        <mxCell id="ii_1wvdTF_ilezys5I7p-45" value="" style="endArrow=classic;html=1;rounded=0;labelBackgroundColor=default;sketch=0;strokeColor=#CCCCCC;strokeWidth=1;fontFamily=Times New Roman;fontSize=12;fontColor=default;startSize=4;endSize=4;sourcePerimeterSpacing=0;targetPerimeterSpacing=0;shape=connector;jumpStyle=none;jumpSize=4;" parent="1" source="ii_1wvdTF_ilezys5I7p-1" target="ii_1wvdTF_ilezys5I7p-14" edge="1">
          <mxGeometry width="50" height="50" relative="1" as="geometry">
            <mxPoint x="166.6645974879699" y="201.05853473856052" as="sourcePoint" />
            <mxPoint x="253.35899411324522" y="258.9059960754968" as="targetPoint" />
          </mxGeometry>
        </mxCell>
        <mxCell id="ii_1wvdTF_ilezys5I7p-46" value="" style="endArrow=classic;html=1;rounded=0;labelBackgroundColor=default;sketch=0;strokeColor=#CCCCCC;strokeWidth=1;fontFamily=Times New Roman;fontSize=12;fontColor=default;startSize=4;endSize=4;sourcePerimeterSpacing=0;targetPerimeterSpacing=0;shape=connector;jumpStyle=none;jumpSize=4;" parent="1" source="ii_1wvdTF_ilezys5I7p-1" target="ii_1wvdTF_ilezys5I7p-15" edge="1">
          <mxGeometry width="50" height="50" relative="1" as="geometry">
            <mxPoint x="162.99670435871735" y="205.20150241957117" as="sourcePoint" />
            <mxPoint x="256.9841725308787" y="314.8148679526919" as="targetPoint" />
          </mxGeometry>
        </mxCell>
        <mxCell id="ii_1wvdTF_ilezys5I7p-48" value="" style="endArrow=classic;html=1;rounded=0;labelBackgroundColor=default;sketch=0;strokeColor=#CCCCCC;strokeWidth=1;fontFamily=Times New Roman;fontSize=12;fontColor=default;startSize=4;endSize=4;sourcePerimeterSpacing=0;targetPerimeterSpacing=0;shape=connector;jumpStyle=none;jumpSize=4;" parent="1" source="ii_1wvdTF_ilezys5I7p-8" target="ii_1wvdTF_ilezys5I7p-16" edge="1">
          <mxGeometry width="50" height="50" relative="1" as="geometry">
            <mxPoint x="165.3471792718468" y="237.175644718046" as="sourcePoint" />
            <mxPoint x="254.63557440805414" y="162.80368799328835" as="targetPoint" />
          </mxGeometry>
        </mxCell>
        <mxCell id="ii_1wvdTF_ilezys5I7p-50" value="" style="endArrow=classic;html=1;rounded=0;labelBackgroundColor=default;sketch=0;strokeColor=#CCCCCC;strokeWidth=1;fontFamily=Times New Roman;fontSize=12;fontColor=default;startSize=4;endSize=4;sourcePerimeterSpacing=0;targetPerimeterSpacing=0;shape=connector;jumpStyle=none;jumpSize=4;" parent="1" source="ii_1wvdTF_ilezys5I7p-8" target="ii_1wvdTF_ilezys5I7p-14" edge="1">
          <mxGeometry width="50" height="50" relative="1" as="geometry">
            <mxPoint x="169.7278784766438" y="253.28797974610734" as="sourcePoint" />
            <mxPoint x="250.27212152335892" y="266.71202025389323" as="targetPoint" />
          </mxGeometry>
        </mxCell>
        <mxCell id="ii_1wvdTF_ilezys5I7p-51" value="" style="endArrow=classic;html=1;rounded=0;labelBackgroundColor=default;sketch=0;strokeColor=#CCCCCC;strokeWidth=1;fontFamily=Times New Roman;fontSize=12;fontColor=default;startSize=4;endSize=4;sourcePerimeterSpacing=0;targetPerimeterSpacing=0;shape=connector;jumpStyle=none;jumpSize=4;" parent="1" source="ii_1wvdTF_ilezys5I7p-8" target="ii_1wvdTF_ilezys5I7p-15" edge="1">
          <mxGeometry width="50" height="50" relative="1" as="geometry">
            <mxPoint x="166.6645974879699" y="261.0585347385605" as="sourcePoint" />
            <mxPoint x="253.35899411324522" y="318.9059960754968" as="targetPoint" />
          </mxGeometry>
        </mxCell>
        <mxCell id="ii_1wvdTF_ilezys5I7p-53" value="" style="endArrow=classic;html=1;rounded=0;labelBackgroundColor=default;sketch=0;strokeColor=#CCCCCC;strokeWidth=1;fontFamily=Times New Roman;fontSize=12;fontColor=default;startSize=4;endSize=4;sourcePerimeterSpacing=0;targetPerimeterSpacing=0;shape=connector;jumpStyle=none;jumpSize=4;" parent="1" source="ii_1wvdTF_ilezys5I7p-9" target="ii_1wvdTF_ilezys5I7p-13" edge="1">
          <mxGeometry width="50" height="50" relative="1" as="geometry">
            <mxPoint x="161.98302613608791" y="293.9872836588561" as="sourcePoint" />
            <mxPoint x="257.99999999999693" y="166.0000000000041" as="targetPoint" />
          </mxGeometry>
        </mxCell>
        <mxCell id="ii_1wvdTF_ilezys5I7p-54" value="" style="endArrow=classic;html=1;rounded=0;labelBackgroundColor=default;sketch=0;strokeColor=#CCCCCC;strokeWidth=1;fontFamily=Times New Roman;fontSize=12;fontColor=default;startSize=4;endSize=4;sourcePerimeterSpacing=0;targetPerimeterSpacing=0;shape=connector;jumpStyle=none;jumpSize=4;entryX=0.074;entryY=0.301;entryDx=0;entryDy=0;entryPerimeter=0;" parent="1" source="ii_1wvdTF_ilezys5I7p-9" target="ii_1wvdTF_ilezys5I7p-14" edge="1">
          <mxGeometry width="50" height="50" relative="1" as="geometry">
            <mxPoint x="165.3471792718468" y="297.175644718046" as="sourcePoint" />
            <mxPoint x="254.63557440805414" y="222.80368799328835" as="targetPoint" />
          </mxGeometry>
        </mxCell>
        <mxCell id="ii_1wvdTF_ilezys5I7p-55" value="" style="endArrow=classic;html=1;rounded=0;labelBackgroundColor=default;sketch=0;strokeColor=#CCCCCC;strokeWidth=1;fontFamily=Times New Roman;fontSize=12;fontColor=default;startSize=4;endSize=4;sourcePerimeterSpacing=0;targetPerimeterSpacing=0;shape=connector;jumpStyle=none;jumpSize=4;" parent="1" source="ii_1wvdTF_ilezys5I7p-9" target="ii_1wvdTF_ilezys5I7p-15" edge="1">
          <mxGeometry width="50" height="50" relative="1" as="geometry">
            <mxPoint x="110" y="300" as="sourcePoint" />
            <mxPoint x="252.96000000000004" y="322.0400000000001" as="targetPoint" />
          </mxGeometry>
        </mxCell>
        <mxCell id="ii_1wvdTF_ilezys5I7p-56" value="" style="endArrow=classic;html=1;rounded=0;labelBackgroundColor=default;sketch=0;strokeColor=#4D4D4D;strokeWidth=1;fontFamily=Times New Roman;fontSize=12;fontColor=default;startSize=4;endSize=4;sourcePerimeterSpacing=0;targetPerimeterSpacing=0;shape=connector;jumpStyle=none;jumpSize=4;" parent="1" source="ii_1wvdTF_ilezys5I7p-10" target="ii_1wvdTF_ilezys5I7p-11" edge="1">
          <mxGeometry width="50" height="50" relative="1" as="geometry">
            <mxPoint x="162.99670435871735" y="325.20150241957117" as="sourcePoint" />
            <mxPoint x="256.9841725308787" y="434.8148679526919" as="targetPoint" />
          </mxGeometry>
        </mxCell>
        <mxCell id="ii_1wvdTF_ilezys5I7p-74" value="&lt;i&gt;W&lt;/i&gt;&lt;sub&gt;1&lt;i&gt;n&lt;/i&gt;&lt;/sub&gt;" style="edgeLabel;html=1;align=center;verticalAlign=middle;resizable=0;points=[];fontSize=12;fontFamily=Times New Roman;fontColor=default;" parent="ii_1wvdTF_ilezys5I7p-56" vertex="1" connectable="0">
          <mxGeometry x="0.1044" y="-1" relative="1" as="geometry">
            <mxPoint x="-6" y="12" as="offset" />
          </mxGeometry>
        </mxCell>
        <mxCell id="ii_1wvdTF_ilezys5I7p-57" value="" style="endArrow=classic;html=1;rounded=0;labelBackgroundColor=default;sketch=0;strokeColor=#CCCCCC;strokeWidth=1;fontFamily=Times New Roman;fontSize=12;fontColor=default;startSize=4;endSize=4;sourcePerimeterSpacing=0;targetPerimeterSpacing=0;shape=connector;jumpStyle=none;jumpSize=4;" parent="1" source="ii_1wvdTF_ilezys5I7p-10" target="ii_1wvdTF_ilezys5I7p-13" edge="1">
          <mxGeometry width="50" height="50" relative="1" as="geometry">
            <mxPoint x="170" y="430" as="sourcePoint" />
            <mxPoint x="263.2732720600428" y="168.83483823188033" as="targetPoint" />
          </mxGeometry>
        </mxCell>
        <mxCell id="ii_1wvdTF_ilezys5I7p-58" value="" style="endArrow=classic;html=1;rounded=0;labelBackgroundColor=default;sketch=0;strokeColor=#CCCCCC;strokeWidth=1;fontFamily=Times New Roman;fontSize=12;fontColor=default;startSize=4;endSize=4;sourcePerimeterSpacing=0;targetPerimeterSpacing=0;shape=connector;jumpStyle=none;jumpSize=4;" parent="1" source="ii_1wvdTF_ilezys5I7p-10" target="ii_1wvdTF_ilezys5I7p-16" edge="1">
          <mxGeometry width="50" height="50" relative="1" as="geometry">
            <mxPoint x="159.55096028013088" y="412.4278869304951" as="sourcePoint" />
            <mxPoint x="260.4229573863885" y="227.5579114582879" as="targetPoint" />
          </mxGeometry>
        </mxCell>
        <mxCell id="ii_1wvdTF_ilezys5I7p-59" value="" style="endArrow=classic;html=1;rounded=0;labelBackgroundColor=default;sketch=0;strokeColor=#CCCCCC;strokeWidth=1;fontFamily=Times New Roman;fontSize=12;fontColor=default;startSize=4;endSize=4;sourcePerimeterSpacing=0;targetPerimeterSpacing=0;shape=connector;jumpStyle=none;jumpSize=4;" parent="1" source="ii_1wvdTF_ilezys5I7p-10" target="ii_1wvdTF_ilezys5I7p-14" edge="1">
          <mxGeometry width="50" height="50" relative="1" as="geometry">
            <mxPoint x="161.98302613608791" y="413.9872836588561" as="sourcePoint" />
            <mxPoint x="257.99999999999693" y="286.0000000000041" as="targetPoint" />
          </mxGeometry>
        </mxCell>
        <mxCell id="ii_1wvdTF_ilezys5I7p-60" value="" style="endArrow=classic;html=1;rounded=0;labelBackgroundColor=default;sketch=0;strokeColor=#CCCCCC;strokeWidth=1;fontFamily=Times New Roman;fontSize=12;fontColor=default;startSize=4;endSize=4;sourcePerimeterSpacing=0;targetPerimeterSpacing=0;shape=connector;jumpStyle=none;jumpSize=4;" parent="1" source="ii_1wvdTF_ilezys5I7p-10" target="ii_1wvdTF_ilezys5I7p-15" edge="1">
          <mxGeometry width="50" height="50" relative="1" as="geometry">
            <mxPoint x="165.3471792718468" y="417.175644718046" as="sourcePoint" />
            <mxPoint x="254.63557440805414" y="342.80368799328835" as="targetPoint" />
          </mxGeometry>
        </mxCell>
        <mxCell id="ii_1wvdTF_ilezys5I7p-70" value="&lt;b&gt;&lt;i&gt;x&lt;/i&gt;&lt;/b&gt;" style="endArrow=none;html=1;rounded=0;labelBackgroundColor=default;sketch=0;strokeColor=#4D4D4D;strokeWidth=1;fontFamily=Times New Roman;fontSize=12;fontColor=default;startSize=4;endSize=4;sourcePerimeterSpacing=0;targetPerimeterSpacing=0;shape=connector;jumpStyle=none;jumpSize=4;spacing=1;spacingLeft=0;labelBorderColor=none;verticalAlign=bottom;labelPosition=center;verticalLabelPosition=middle;align=center;" parent="1" edge="1">
          <mxGeometry width="50" height="50" relative="1" as="geometry">
            <mxPoint x="90" y="270" as="sourcePoint" />
            <mxPoint x="110" y="270" as="targetPoint" />
            <Array as="points">
              <mxPoint x="100" y="270" />
            </Array>
            <mxPoint as="offset" />
          </mxGeometry>
        </mxCell>
        <mxCell id="ii_1wvdTF_ilezys5I7p-72" value="&lt;i&gt;W&lt;/i&gt;&lt;sub&gt;12&lt;/sub&gt;" style="endArrow=classic;html=1;rounded=0;labelBackgroundColor=default;sketch=0;strokeColor=#4D4D4D;strokeWidth=1;fontFamily=Times New Roman;fontSize=12;fontColor=default;startSize=4;endSize=4;sourcePerimeterSpacing=0;targetPerimeterSpacing=0;shape=connector;jumpStyle=none;jumpSize=4;" parent="1" source="ii_1wvdTF_ilezys5I7p-8" target="ii_1wvdTF_ilezys5I7p-11" edge="1">
          <mxGeometry width="50" height="50" relative="1" as="geometry">
            <mxPoint x="168.9915063440793" y="183.7292196033701" as="sourcePoint" />
            <mxPoint x="251.02633403898983" y="156.3245553203368" as="targetPoint" />
          </mxGeometry>
        </mxCell>
        <mxCell id="ii_1wvdTF_ilezys5I7p-73" value="&lt;i&gt;W&lt;/i&gt;&lt;sub&gt;13&lt;/sub&gt;" style="endArrow=classic;html=1;rounded=0;labelBackgroundColor=default;sketch=0;strokeColor=#4D4D4D;strokeWidth=1;fontFamily=Times New Roman;fontSize=12;fontColor=default;startSize=4;endSize=4;sourcePerimeterSpacing=0;targetPerimeterSpacing=0;shape=connector;jumpStyle=none;jumpSize=4;" parent="1" source="ii_1wvdTF_ilezys5I7p-9" target="ii_1wvdTF_ilezys5I7p-11" edge="1">
          <mxGeometry width="50" height="50" relative="1" as="geometry">
            <mxPoint x="165.3471792718468" y="237.175644718046" as="sourcePoint" />
            <mxPoint x="254.63557440805414" y="162.80368799328835" as="targetPoint" />
          </mxGeometry>
        </mxCell>
        <mxCell id="ii_1wvdTF_ilezys5I7p-75" value="&lt;b&gt;&lt;i&gt;y&lt;/i&gt;&lt;/b&gt;" style="endArrow=none;html=1;rounded=0;labelBackgroundColor=default;sketch=0;strokeColor=#4D4D4D;strokeWidth=1;fontFamily=Times New Roman;fontSize=12;fontColor=default;startSize=4;endSize=4;sourcePerimeterSpacing=0;targetPerimeterSpacing=0;shape=connector;jumpStyle=none;jumpSize=4;spacing=1;spacingLeft=0;labelBorderColor=none;verticalAlign=bottom;" parent="1" edge="1">
          <mxGeometry width="50" height="50" relative="1" as="geometry">
            <mxPoint x="290" y="270" as="sourcePoint" />
            <mxPoint x="310" y="270" as="targetPoint" />
            <Array as="points">
              <mxPoint x="300" y="270" />
            </Array>
            <mxPoint as="offset" />
          </mxGeometry>
        </mxCell>
        <mxCell id="ii_1wvdTF_ilezys5I7p-1" value="&lt;font size=&quot;1&quot; face=&quot;Times New Roman&quot;&gt;&lt;i style=&quot;font-size: 12px;&quot;&gt;x&lt;/i&gt;&lt;/font&gt;&lt;font size=&quot;1&quot; face=&quot;Times New Roman&quot; style=&quot;&quot;&gt;&lt;sub style=&quot;font-size: 9px;&quot;&gt;1&lt;/sub&gt;&lt;/font&gt;" style="ellipse;whiteSpace=wrap;html=1;aspect=fixed;" parent="1" vertex="1">
          <mxGeometry x="120" y="160" width="40" height="40" as="geometry" />
        </mxCell>
        <mxCell id="ii_1wvdTF_ilezys5I7p-8" value="&lt;font size=&quot;1&quot; face=&quot;Times New Roman&quot;&gt;&lt;i style=&quot;font-size: 12px;&quot;&gt;x&lt;/i&gt;&lt;/font&gt;&lt;font face=&quot;Times New Roman&quot; style=&quot;font-size: 10px;&quot;&gt;&lt;sub&gt;2&lt;/sub&gt;&lt;/font&gt;" style="ellipse;whiteSpace=wrap;html=1;aspect=fixed;" parent="1" vertex="1">
          <mxGeometry x="120" y="220" width="40" height="40" as="geometry" />
        </mxCell>
        <mxCell id="ii_1wvdTF_ilezys5I7p-9" value="&lt;font size=&quot;1&quot; face=&quot;Times New Roman&quot;&gt;&lt;i style=&quot;font-size: 12px;&quot;&gt;x&lt;/i&gt;&lt;/font&gt;&lt;font size=&quot;1&quot; face=&quot;Times New Roman&quot; style=&quot;&quot;&gt;&lt;sub style=&quot;font-size: 9px;&quot;&gt;3&lt;/sub&gt;&lt;/font&gt;" style="ellipse;whiteSpace=wrap;html=1;aspect=fixed;" parent="1" vertex="1">
          <mxGeometry x="120" y="280" width="40" height="40" as="geometry" />
        </mxCell>
        <mxCell id="ii_1wvdTF_ilezys5I7p-10" value="&lt;font face=&quot;Times New Roman&quot;&gt;&lt;i style=&quot;font-size: 12px;&quot;&gt;x&lt;/i&gt;&lt;i style=&quot;font-size: 6.94444px;&quot;&gt;&lt;sub&gt;m&lt;/sub&gt;&lt;/i&gt;&lt;/font&gt;" style="ellipse;whiteSpace=wrap;html=1;aspect=fixed;" parent="1" vertex="1">
          <mxGeometry x="120" y="400" width="40" height="40" as="geometry" />
        </mxCell>
        <mxCell id="ii_1wvdTF_ilezys5I7p-11" value="&lt;font face=&quot;Times New Roman&quot; style=&quot;&quot;&gt;&lt;span style=&quot;font-size: 12px;&quot;&gt;&lt;i style=&quot;&quot;&gt;y&lt;/i&gt;&lt;/span&gt;&lt;sub style=&quot;font-size: 9px;&quot;&gt;1&lt;/sub&gt;&lt;/font&gt;" style="ellipse;whiteSpace=wrap;html=1;aspect=fixed;" parent="1" vertex="1">
          <mxGeometry x="240" y="120" width="40" height="40" as="geometry" />
        </mxCell>
        <mxCell id="ii_1wvdTF_ilezys5I7p-13" value="&lt;font size=&quot;1&quot; face=&quot;Times New Roman&quot;&gt;&lt;i style=&quot;font-size: 12px;&quot;&gt;y&lt;/i&gt;&lt;/font&gt;&lt;font face=&quot;Times New Roman&quot; style=&quot;font-size: 10px;&quot;&gt;&lt;sub&gt;2&lt;/sub&gt;&lt;/font&gt;" style="ellipse;whiteSpace=wrap;html=1;aspect=fixed;" parent="1" vertex="1">
          <mxGeometry x="240" y="180" width="40" height="40" as="geometry" />
        </mxCell>
        <mxCell id="ii_1wvdTF_ilezys5I7p-14" value="&lt;font size=&quot;1&quot; face=&quot;Times New Roman&quot;&gt;&lt;i style=&quot;font-size: 12px;&quot;&gt;y&lt;/i&gt;&lt;/font&gt;&lt;font size=&quot;1&quot; face=&quot;Times New Roman&quot; style=&quot;&quot;&gt;&lt;sub style=&quot;font-size: 9px;&quot;&gt;4&lt;/sub&gt;&lt;/font&gt;" style="ellipse;whiteSpace=wrap;html=1;aspect=fixed;" parent="1" vertex="1">
          <mxGeometry x="240" y="300" width="40" height="40" as="geometry" />
        </mxCell>
        <mxCell id="ii_1wvdTF_ilezys5I7p-16" value="&lt;font size=&quot;1&quot; face=&quot;Times New Roman&quot;&gt;&lt;i style=&quot;font-size: 12px;&quot;&gt;y&lt;/i&gt;&lt;/font&gt;&lt;font face=&quot;Times New Roman&quot; style=&quot;font-size: 10px;&quot;&gt;&lt;sub&gt;3&lt;/sub&gt;&lt;/font&gt;" style="ellipse;whiteSpace=wrap;html=1;aspect=fixed;" parent="1" vertex="1">
          <mxGeometry x="240" y="240" width="40" height="40" as="geometry" />
        </mxCell>
      </root>
    </mxGraphModel>
  </diagram>
</mxfile>
